<svg xmlns="http://www.w3.org/2000/svg" xmlns:xlink="http://www.w3.org/1999/xlink" preserveAspectRatio="xMidYMid meet" version="1.0" viewBox="-0.2 0.0 407.9 239.6" zoomAndPan="magnify" style="fill: rgb(0, 0, 0);" original_string_length="34532"><g id="__id103_szdb9ya0mh"><path d="M91.6,28.9c-0.2,1.4-1,2.7-2.1,3.6c-0.1,0.1-0.2,0.2-0.3,0.2c-0.5,0.4-1.1,0.7-1.7,0.8 c-0.3,0.1-0.6,0.2-0.9,0.2c-0.5,0.1-1,0.1-1.5,0c-1.3,0-2.6-0.5-3.6-1.3c-1.1-0.9-1.9-2.3-2.1-3.8c0.3,0.5,0.8,0.7,1.4,0.8 c0.9,0.2,1.7,0.2,2.6-0.1c0.8-0.2,1.6-0.7,2.1-1.4c0,0,0,0,0,0c1.2,1.5,3.4,2.1,5.2,1.5C91,29.4,91.4,29.2,91.6,28.9z M85.3,27.7 c0,0,0.1,0.1,0.2,0c0,0,1-0.9,0.2-2.8c0,0-0.8-1.5,0-3.8c0,0-1.7,0.7-1.7,3.3C84.1,24.5,84,27.1,85.3,27.7z M85.5,135.7 C85.5,135.7,85.5,135.7,85.5,135.7c-0.6,0.8-1.5,1.3-2.4,1.6c-0.9,0.3-1.9,0.3-2.9,0.1c-0.6-0.1-1.3-0.4-1.6-0.9 c0.2,1.6,1.1,3.2,2.4,4.2c1.1,0.9,2.6,1.4,4,1.5c0.6,0,1.1,0,1.7,0c0.4,0,0.7-0.1,1.1-0.2c0.7-0.2,1.4-0.5,2-0.9 c0.1-0.1,0.2-0.2,0.4-0.3c1.2-1,2.1-2.5,2.4-4.1c-0.2,0.4-0.6,0.7-1.1,0.8C89.3,138,86.9,137.3,85.5,135.7z M84,131.6 c0,0-0.1,2.9,1.4,3.6c0,0,0.1,0.1,0.3,0c0,0,1.1-1,0.2-3.2c0,0-1-1.7,0-4.2C85.9,127.9,84,128.7,84,131.6z M85.6,125.6 c4.9,0,9,4,9,9s-4,9-9,9c-4.9,0-9-4-9-9S80.6,125.6,85.6,125.6z M85.6,125.9c-4.8,0-8.7,3.9-8.7,8.7c0,4.8,3.9,8.7,8.7,8.7 c4.8,0,8.7-3.9,8.7-8.7C94.3,129.8,90.4,125.9,85.6,125.9z M94.8,30c-0.1,0.4-0.2,0.8-0.4,1.1l4.9,1.1l0.6,3.8l-3.6,1.3L93,33.6 c-0.3,0.3-0.5,0.6-0.8,0.9l4.1,3.1l-1,3.7L91.5,41L90,36.1c-0.4,0.2-0.7,0.3-1.1,0.5l2.5,4.5l-2.4,3l-2.6-1.4l0,0v10.6 c0.5,0.2,0.9,0.8,0.9,1.4s-0.4,1.1-0.9,1.4v0.3c0.9,0.3,1.6,1.1,1.6,2.1c0,1-0.7,1.9-1.6,2.1v0.8l3.5,4.9l-3.5,4.9v1.6l4.7,6.7 l-4.7,6.7v1.2l3.7,5.3l-3.7,5.3v0.4c0.9,0.3,1.6,1.1,1.6,2.1c0,1-0.7,1.9-1.6,2.1v0.1c0.5,0.2,0.9,0.8,0.9,1.4s-0.4,1.1-0.9,1.4 v13.5l1.2,1.3c1,1.1,1.4,2.6,0.9,4c0,0,0,0,0,0c0.1,0,0.1,0,0.2,0c0,0,0,0,0,0c0.3-1.3,1.3-2.4,2.6-2.9l2.6-0.9l0.6,2.7 c0.3,1.5-0.1,2.9-1.2,3.9c0,0,0,0,0,0c0,0,0.1,0.1,0.1,0.1c0.9-1,2.3-1.5,3.7-1.2l2.7,0.5L99,129c-0.4,1.4-1.6,2.5-3,2.8 c0,0,0,0,0,0c0,0,0,0.1,0,0.2c1.3-0.4,2.7-0.1,3.8,0.8l2.1,1.8l-2,1.9c-1.1,1-2.6,1.4-4,0.9c0,0.1,0,0.1,0,0.2 c1.3,0.3,2.4,1.3,2.9,2.6l0.9,2.6l-2.7,0.6c-1.5,0.3-2.9-0.1-3.9-1.2c0,0-0.1,0.1-0.1,0.1c0,0,0,0,0,0c1,0.9,1.5,2.3,1.2,3.7 l-0.5,2.7l-2.7-0.8c-1.4-0.4-2.5-1.6-2.8-3l0,0c0,0-0.1,0-0.2,0c0,0,0,0,0,0c0.4,1.3,0.1,2.7-0.8,3.8l-1.8,2.1l-1.9-2 c-1-1.1-1.4-2.6-0.9-4c0,0,0,0,0,0c-0.1,0-0.1,0-0.2,0c-0.3,1.3-1.3,2.4-2.6,2.9l-2.6,0.9l-0.6-2.7c-0.3-1.5,0.1-2.9,1.2-3.9 c0,0-0.1-0.1-0.1-0.1c-0.9,1-2.3,1.5-3.7,1.2l-2.7-0.5l0.8-2.7c0.4-1.4,1.6-2.5,3-2.8c0,0,0,0,0,0c0,0,0-0.1,0-0.2 c-1.3,0.4-2.7,0.1-3.8-0.8l-2.1-1.8l2-1.9c1.1-1,2.6-1.4,4-0.9c0-0.1,0-0.1,0-0.2c-1.3-0.3-2.4-1.3-2.9-2.6l-0.9-2.6l2.7-0.6 c1.5-0.3,2.9,0.1,3.9,1.2c0,0,0,0,0,0c0,0,0.1-0.1,0.1-0.1c0,0,0,0,0,0c-1-0.9-1.5-2.3-1.2-3.7l0.5-2.7l2.7,0.8 c1.4,0.4,2.5,1.6,2.8,3c0,0,0.1,0,0.2,0c0,0,0,0,0,0c-0.4-1.3-0.1-2.7,0.8-3.8l1.2-1.4v-13.4c-0.5-0.2-0.9-0.8-0.9-1.4 s0.4-1.1,0.9-1.4v-0.1c-0.9-0.3-1.6-1.1-1.6-2.1c0-1,0.7-1.9,1.6-2.1v-0.4l-3.7-5.3l3.7-5.3v-1.2l-4.7-6.7l4.7-6.7v-1.6l-3.5-4.9 l3.5-4.9v-0.8c-0.9-0.3-1.6-1.1-1.6-2.1c0-1,0.7-1.9,1.6-2.1v-0.3c-0.5-0.2-0.9-0.8-0.9-1.4s0.4-1.1,0.9-1.4V42.5l-3,1.6l-2.4-3 l2.6-4.5c-0.4-0.1-0.8-0.3-1.1-0.5L79.4,41l-3.8,0.2l-0.9-3.7l4.2-3c-0.3-0.3-0.6-0.6-0.8-0.9l-3.4,3.7l-3.6-1.4l0.6-3.8l4.9-1 c-0.2-0.4-0.3-0.8-0.4-1.1l-4.6,1.9l-2.7-2.7l2.1-3.2l4.9,1.1c0-0.4,0-0.8,0.1-1.2l-5-0.1l-1.4-3.6l3.2-2l4.1,3 c0.2-0.4,0.4-0.7,0.6-1.1l-4.6-2.1l0.2-3.8l3.8-0.6l2.5,4.5c0.3-0.3,0.7-0.5,1-0.7l-3.4-3.9l1.7-3.4l3.7,1l0.5,5.2 c0.4-0.1,0.8-0.2,1.2-0.3l-1.5-4.9l2.5-2.1V0h1.3v11.6l2.1,1.7l-1.7,4.9c0.4,0,0.8,0.1,1.2,0.2l0.6-5.1l3.7-1l1.7,3.4l-3.5,3.8 c0.4,0.2,0.7,0.4,1,0.7l2.6-4.4l3.8,0.6l0.2,3.8l-4.7,2c0.2,0.3,0.5,0.7,0.6,1l4.1-2.9l3.2,2.1L100,26l-5,0c0.1,0.4,0.1,0.8,0.1,1.2 l4.9-0.9l2.1,3.2l-2.7,2.7L94.8,30z M95,23.5l0.5,1.7l3.8,0l1-2.4L98,21.4L95,23.5z M88.8,17.8l1.6,0.8l2.5-2.8l-1.1-2.3l-2.5,0.7 L88.8,17.8z M80.3,18.6l1.6-0.7l-0.4-3.8l-2.5-0.7l-1.2,2.3L80.3,18.6z M75.8,23.7l-3-2.2l-2.2,1.4l1,2.4l3.7,0.1L75.8,23.7z M76.9,33.7l-0.8-1.5l-3.7,0.8L72,35.4l2.4,0.9L76.9,33.7z M80.1,36.6l-1.4-1.1l-3.1,2.2l0.6,2.5l2.6-0.2L80.1,36.6z M90.9,36.5 l1.1,3.6l2.6,0.2l0.7-2.5l-2.9-2.2L90.9,36.5z M94,33.5l2.5,2.8l2.4-0.9l-0.4-2.6L94.9,32L94,33.5z M95.6,29.5l3.4,1.6l1.8-1.8 l-1.4-2.2l-3.6,0.7L95.6,29.5z M92.5,20l1.1,1.3l3.5-1.5L97,17.2l-2.6-0.4L92.5,20z M84.5,17.3l1.7,0.1l1.2-3.6l-2-1.6l-2,1.7 L84.5,17.3z M78.3,20.2l-1.9-3.3l-2.6,0.4l-0.1,2.6l3.3,1.6L78.3,20.2z M75.2,29.7L75.1,28l-3.7-0.8L70,29.3l1.9,1.8L75.2,29.7z M84.5,41.7L84.2,38l-1.7-0.4l-1.9,3.2l1.6,2L84.5,41.7z M78.4,126.5c1.1-1,2.5-1.8,4-2.3c-0.4-1.2-1.3-2.2-2.4-2.6l-2.3-0.8 l-0.3,2.4C77.1,124.4,77.5,125.6,78.4,126.5z M75.3,131.2C75.3,131.2,75.3,131.2,75.3,131.2c0.5-1.5,1.3-2.8,2.3-3.9c0,0,0,0,0,0 c-0.9-0.9-2.2-1.3-3.4-1l-2.4,0.4l0.9,2.3C73.2,130,74.1,130.9,75.3,131.2z M74.9,136.8c-0.1-0.7-0.2-1.4-0.2-2.2 c0-0.8,0.1-1.6,0.3-2.4c0,0,0,0,0,0c-1.2-0.3-2.5,0-3.5,0.8l-1.9,1.6l1.9,1.5C72.5,136.8,73.8,137.1,74.9,136.8z M77.5,141.8 c-1-1.1-1.8-2.5-2.3-4c-1.2,0.4-2.2,1.3-2.6,2.4l-0.8,2.3l2.4,0.3C75.4,143.1,76.6,142.7,77.5,141.8z M82.2,144.9 C82.2,144.9,82.2,144.9,82.2,144.9c-1.5-0.5-2.8-1.3-3.9-2.3c-0.9,0.9-1.3,2.2-1,3.4l0.4,2.4l2.3-0.9C81,147,81.8,146.1,82.2,144.9z M87.8,145.2C87.8,145.2,87.8,145.2,87.8,145.2c-0.7,0.1-1.4,0.2-2.2,0.2c-0.8,0-1.6-0.1-2.4-0.3c-0.3,1.2,0,2.5,0.8,3.5l1.6,1.9 l1.5-1.9C87.8,147.6,88.1,146.4,87.8,145.2z M92.8,142.7C92.8,142.7,92.8,142.7,92.8,142.7c-1.1,1-2.5,1.8-4,2.3 c0.4,1.2,1.3,2.2,2.4,2.6l2.3,0.8l0.3-2.4C94,144.8,93.6,143.6,92.8,142.7z M95.9,138C95.9,138,95.9,138,95.9,138 c-0.5,1.5-1.3,2.8-2.3,3.9c0,0,0,0,0,0c0.9,0.9,2.2,1.3,3.4,1l2.4-0.4l-0.9-2.3C98,139.2,97,138.4,95.9,138z M96.2,132.4 c0.1,0.7,0.2,1.4,0.2,2.2c0,0.8-0.1,1.6-0.3,2.4c0,0,0,0,0,0c1.2,0.3,2.5,0,3.5-0.8l1.9-1.6l-1.9-1.5 C98.6,132.4,97.4,132.1,96.2,132.4z M93.7,127.4c1,1.1,1.8,2.5,2.3,4c1.2-0.4,2.2-1.3,2.6-2.4l0.8-2.3l-2.4-0.3 C95.7,126.1,94.5,126.6,93.7,127.4z M89,124.3c1.5,0.5,2.8,1.3,3.9,2.3c0.9-0.9,1.3-2.2,1-3.4l-0.4-2.4l-2.3,0.9 C90.2,122.2,89.3,123.1,89,124.3z M85.6,124.1c-5.8,0-10.5,4.7-10.5,10.5c0,5.8,4.7,10.5,10.5,10.5c5.8,0,10.5-4.7,10.5-10.5 C96.1,128.8,91.4,124.1,85.6,124.1z M87.1,120.5l-1.2-1.5h-0.7l-1.2,1.5c-0.7,1-1,2.2-0.7,3.4c0.7-0.1,1.4-0.2,2.2-0.2 c0.8,0,1.6,0.1,2.4,0.3C88.2,122.8,87.9,121.5,87.1,120.5z M88.5,37.6l-1.7,0.3l-0.4,3.7l2.3,1.2l1.6-2L88.5,37.6z M86.1,37.2 c-0.2,0-0.5,0-0.7,0c-0.2,0-0.3,0-0.5,0l0.4,4.3v0h0.4l0,0L86.1,37.2z M94.5,27.7c0-4.9-4.1-8.9-9.1-8.9c-5,0-9.1,4-9.1,8.9 c0,4.9,4.1,8.9,9.1,8.9C90.4,36.6,94.5,32.6,94.5,27.7z M93.7,27.7c0,4.5-3.7,8.1-8.3,8.1c-4.6,0-8.3-3.7-8.3-8.1 c0-4.5,3.7-8.2,8.3-8.2C90,19.5,93.7,23.2,93.7,27.7z M93.1,27.7c0-4.1-3.4-7.5-7.7-7.5c-4.2,0-7.7,3.4-7.7,7.5 c0,4.1,3.4,7.5,7.7,7.5C89.7,35.2,93.1,31.8,93.1,27.7z M48.2,191.9l-0.1,0.2c-0.6,1.4,0.4,3,2,3h0c1.6,0,2.7-1.6,2-3l-0.1-0.2 l-1.9-3.2L48.2,191.9z M54.6,189.7c1.4,0.6,3-0.4,3-2s-1.6-2.7-3-2l-0.2,0.1l-3.2,1.9l3.2,1.9L54.6,189.7z M45.7,185.7 c-1.4-0.6-3,0.4-3,2s1.6,2.7,3,2l0.2-0.1l3.2-1.9l-3.2-1.9L45.7,185.7z M64.6,101.4l2.1,1.8l-2.1,1.9c-1.1,1-2.6,1.4-4,0.9 c0,0.1,0,0.1,0,0.2c1.4,0.3,2.5,1.3,2.9,2.6l0.9,2.6l-2.7,0.6c-1.5,0.3-2.9-0.1-3.9-1.2c0,0-0.1,0.1-0.1,0.1c1,0.9,1.5,2.3,1.2,3.7 l-0.5,2.8l-2.7-0.8c-1.4-0.4-2.5-1.6-2.8-3c-0.1,0-0.1,0-0.2,0c0,0,0,0,0,0c0.4,1.3,0.1,2.8-0.8,3.9l-1.2,1.4v12 c0.7,0.3,1.2,0.9,1.2,1.6s-0.5,1.4-1.2,1.6v0.2c1.3,0.3,2.3,1.4,2.3,2.7s-1,2.4-2.3,2.7v0c0.7,0.3,1.2,0.9,1.2,1.6s-0.5,1.4-1.2,1.6 v6.7l0.2,0.6h2.6l-2.1,1.5l0.8,2.4l-1.5-1.1v5.8l1.3,1.9l-1.3,1.9v1.7l3,4.2l-3,4.2v1.3l1.3,1.9l-1.3,1.9v8.9l3.5-2.1l0.3-0.1 c0.9-0.4,1.9-0.3,2.7,0.2c0.9,0.6,1.4,1.5,1.4,2.6s-0.5,2-1.4,2.6c-0.5,0.3-1,0.5-1.5,0.5c-0.4,0-0.8-0.1-1.2-0.3l-0.3-0.1l-3.9-2.4 l2.4,3.9l0.1,0.3c0.4,0.9,0.3,1.9-0.2,2.7c-0.6,0.9-1.5,1.4-2.6,1.4c-1.1,0-2-0.5-2.6-1.4c-0.5-0.8-0.6-1.8-0.2-2.7l0.1-0.3l2.4-4 l-4,2.4l-0.3,0.1c-0.4,0.2-0.8,0.3-1.2,0.3c-0.5,0-1-0.1-1.5-0.5c-0.9-0.6-1.4-1.5-1.4-2.6s0.5-2,1.4-2.6c0.8-0.5,1.8-0.6,2.7-0.2 l0.3,0.1l3.6,2.2l0,0v-8.8l-1.4-2l1.4-2v-0.8l-3.2-4.6l3.2-4.6v-1.2l-1.4-2l1.4-2v-5.6l-1.4,1l0.8-2.4l-2.1-1.5h2.6l0.1-0.4v-6.9 c-0.7-0.2-1.2-0.9-1.2-1.7s0.5-1.4,1.2-1.7v0c-1.3-0.3-2.3-1.4-2.3-2.7s1-2.4,2.3-2.7v-0.2c-0.7-0.2-1.2-0.9-1.2-1.7 s0.5-1.4,1.2-1.7v-12l-1.2-1.3c-1-1.1-1.4-2.6-0.9-4c0,0,0,0,0,0c-0.1,0-0.1,0-0.2,0c-0.3,1.4-1.3,2.5-2.6,2.9l-2.6,0.9l-0.6-2.7 c-0.3-1.5,0.1-2.9,1.2-3.9c0,0,0,0,0,0c0,0-0.1-0.1-0.1-0.1c0,0,0,0,0,0c-0.9,1-2.3,1.5-3.8,1.2l-2.8-0.5l0.8-2.7 c0.4-1.4,1.6-2.5,3-2.8c0,0,0,0,0,0c0-0.1,0-0.1,0-0.2c0,0,0,0,0,0c-1.3,0.4-2.8,0.1-3.9-0.8l-2.1-1.8l2.1-1.9c1.1-1,2.6-1.4,4-0.9 c0,0,0,0,0,0c0-0.1,0-0.1,0-0.2c-1.4-0.3-2.5-1.3-2.9-2.6L35.8,95l2.7-0.6c1.5-0.3,2.9,0.1,3.9,1.2c0,0,0,0,0,0c0,0,0.1-0.1,0.1-0.1 c0,0,0,0,0,0c-1-0.9-1.5-2.3-1.2-3.7l0.5-2.8l2.7,0.8c1.4,0.4,2.5,1.6,2.8,3c0,0,0,0,0,0c0.1,0,0.1,0,0.2,0 c-0.4-1.3-0.1-2.8,0.8-3.9l1.2-1.4V67.2l-1.4-2l1.4-2v-0.7l-3.2-4.6l3.2-4.6V52l-1.4-2l1.4-2V36.8l-1.3,1l0.8-2.4L47,33.8h2.6 l0.1-0.2V20.8c-0.7-0.3-1.3-1-1.3-1.9c0-0.8,0.5-1.5,1.2-1.8c-1.5-0.3-2.7-1.7-2.7-3.3c0-1.7,1.2-3.1,2.8-3.4v0 c-0.7-0.3-1.3-1-1.3-1.9s0.5-1.6,1.3-1.9V0h1.3v6.6c0.8,0.2,1.4,1,1.4,1.9c0,0.9-0.6,1.6-1.4,1.9c1.5,0.3,2.7,1.7,2.7,3.3 c0,1.6-1.1,3-2.6,3.3c0.7,0.3,1.3,1,1.3,1.8c0,0.9-0.6,1.7-1.4,1.9V33l0.3,0.8h2.6l-2.1,1.5l0.8,2.4l-1.6-1.1v11.5l1.3,1.9l-1.3,1.9 v1.7l3,4.2l-3,4.2v1.3l1.3,1.9L50.8,67v20.4l1.3,1.4c1,1.1,1.4,2.6,0.9,4c0,0,0,0,0,0c0,0,0.1,0,0.2,0c0.3-1.4,1.3-2.5,2.6-2.9 l2.6-0.9l0.6,2.7c0.3,1.5-0.1,2.9-1.2,3.9c0,0,0,0,0,0c0,0,0.1,0.1,0.1,0.1c0,0,0,0,0,0c0.9-1,2.3-1.5,3.7-1.2l2.8,0.5l-0.8,2.7 c-0.4,1.4-1.6,2.5-3,2.8c0,0.1,0,0.1,0,0.2c0,0,0,0,0,0C62.1,100.2,63.5,100.5,64.6,101.4z M58.4,96c1,1.1,1.8,2.5,2.3,4 c0,0,0,0,0,0c1.2-0.4,2.2-1.3,2.6-2.5l0.8-2.3l-2.4-0.3C60.4,94.8,59.2,95.2,58.4,96z M53.6,92.9c1.5,0.5,2.8,1.3,4,2.3 c0.9-0.9,1.3-2.2,1-3.4l-0.4-2.4l-2.3,0.9C54.8,90.8,54,91.8,53.6,92.9z M48,92.6c0.7-0.1,1.5-0.2,2.2-0.2c0.8,0,1.6,0.1,2.4,0.3 c0,0,0,0,0,0c0.3-1.2,0-2.5-0.8-3.5l-1.2-1.4h-0.7l-1.2,1.5C48,90.2,47.7,91.4,48,92.6z M43,95.1c1.1-1,2.5-1.8,4-2.3c0,0,0,0,0,0 c-0.4-1.2-1.3-2.2-2.5-2.6l-2.3-0.8l-0.3,2.4C41.7,93.1,42.1,94.3,43,95.1z M39.8,99.9c0.5-1.5,1.3-2.8,2.3-4 c-0.9-0.9-2.2-1.3-3.4-1l-2.4,0.4l0.9,2.3C37.7,98.7,38.7,99.5,39.8,99.9z M39.5,105.5c-0.1-0.7-0.2-1.4-0.2-2.2 c0-0.8,0.1-1.6,0.3-2.4c0,0,0,0,0,0c-1.2-0.3-2.5,0-3.5,0.8l-1.9,1.6l2,1.5C37.1,105.5,38.3,105.8,39.5,105.5z M42.1,110.5 c-1-1.1-1.8-2.5-2.3-4c0,0,0,0,0,0c-1.2,0.4-2.2,1.3-2.6,2.5l-0.8,2.3l2.4,0.3C40,111.8,41.2,111.4,42.1,110.5z M46.8,113.6 C46.8,113.6,46.8,113.6,46.8,113.6c-1.5-0.5-2.8-1.3-4-2.3c0,0,0,0,0,0c-0.9,0.9-1.3,2.2-1,3.4l0.4,2.4l2.3-0.9 C45.6,115.8,46.4,114.8,46.8,113.6z M49.8,187.8L49.8,187.8l-0.2,0v-0.3l0,0l-3.7-2.2l-0.3-0.1c-0.8-0.4-1.7-0.3-2.5,0.2 c-0.8,0.5-1.3,1.4-1.3,2.4c0,1,0.5,1.9,1.3,2.4c0.8,0.5,1.7,0.6,2.5,0.2l0.3-0.1L49.8,187.8z M50.2,187.9l-2.5,4.1l-0.1,0.3 c-0.4,0.8-0.3,1.7,0.2,2.5c0.5,0.8,1.4,1.3,2.4,1.3c1,0,1.9-0.5,2.4-1.3c0.5-0.8,0.6-1.7,0.2-2.5l-0.1-0.3L50.2,187.9z M50.8,187.4 v0.4h-0.3l0,0l4,2.4l0.3,0.1c0.8,0.4,1.7,0.3,2.5-0.2c0.8-0.5,1.3-1.4,1.3-2.4c0-1-0.5-1.9-1.3-2.4c-0.4-0.3-0.9-0.4-1.4-0.4 c-0.4,0-0.7,0.1-1.1,0.2l-0.3,0.1L50.8,187.4z M52.4,114c-0.7,0.1-1.4,0.2-2.2,0.2c-0.8,0-1.6-0.1-2.4-0.3c-0.3,1.2,0,2.5,0.8,3.5 L50,119h0.5l1.3-1.7C52.5,116.4,52.7,115.1,52.4,114z M60.8,103.3c0-5.8-4.7-10.6-10.6-10.6s-10.6,4.7-10.6,10.6 c0,5.8,4.7,10.6,10.6,10.6S60.8,109.1,60.8,103.3z M57.5,111.4c-1.1,1-2.5,1.8-4,2.3c0,0,0,0,0,0c0.4,1.2,1.3,2.2,2.5,2.6l2.3,0.8 l0.3-2.4C58.7,113.5,58.3,112.3,57.5,111.4z M60.6,106.7C60.6,106.7,60.6,106.7,60.6,106.7c-0.5,1.5-1.3,2.8-2.3,4 c0.9,0.9,2.2,1.3,3.4,1l2.4-0.4l-0.9-2.3C62.7,107.9,61.7,107.1,60.6,106.7z M66.2,103.3l-2-1.5c-1-0.7-2.2-1-3.4-0.7 c0.1,0.7,0.2,1.4,0.2,2.2c0,0.8-0.1,1.6-0.3,2.4c1.2,0.3,2.5,0,3.5-0.8L66.2,103.3z M59.2,103.3c0,5-4,9-9,9c-5,0-9-4-9-9 c0-5,4-9,9-9C55.2,94.3,59.2,98.3,59.2,103.3z M58.9,103.3c0-4.8-3.9-8.7-8.7-8.7s-8.7,3.9-8.7,8.7c0,4.8,3.9,8.7,8.7,8.7 S58.9,108.1,58.9,103.3z M55.9,105.6c-2,0.6-4.4,0-5.7-1.6c0,0,0,0,0,0c-0.6,0.8-1.4,1.3-2.3,1.5c-0.9,0.3-1.9,0.3-2.8,0.1 c-0.6-0.1-1.3-0.3-1.5-0.9c0.2,1.6,1.1,3.1,2.3,4.1c1.1,0.9,2.5,1.4,3.9,1.4c0.5,0,1.1,0,1.6,0c0.4,0,0.7-0.1,1-0.2 c0.7-0.2,1.3-0.5,1.9-0.9c0.1-0.1,0.2-0.2,0.4-0.3c1.2-1,2-2.4,2.3-4C56.8,105.2,56.3,105.4,55.9,105.6z M50,103.5 c0,0,0.1,0.1,0.3,0c0,0,1.1-1,0.2-3.1c0,0-0.9-1.6,0-4.1c0,0-1.8,0.8-1.8,3.6C48.7,100,48.6,102.8,50,103.5z M14.9,228.8 C14.9,228.8,14.9,228.8,14.9,228.8c-0.3,0.4-0.8,0.7-1.3,0.8c-0.5,0.1-1,0.1-1.6,0c-0.3-0.1-0.7-0.2-0.8-0.5 c0.1,0.9,0.6,1.7,1.3,2.3c0.6,0.5,1.4,0.8,2.2,0.8c0.3,0,0.6,0,0.9,0c0.2,0,0.4-0.1,0.6-0.1c0.4-0.1,0.7-0.3,1-0.5 c0.1,0,0.1-0.1,0.2-0.1c0.7-0.5,1.1-1.3,1.3-2.2c-0.1,0.2-0.3,0.4-0.6,0.4C17,230.1,15.7,229.7,14.9,228.8z M14.1,226.7 c0,0-0.1,1.5,0.7,1.9c0,0,0.1,0,0.1,0c0,0,0.6-0.5,0.1-1.7c0,0-0.5-0.9,0-2.3C15.1,224.7,14.1,225.1,14.1,226.7z M15,223.2 c3,0,5.4,2.4,5.4,5.3c0,2.9-2.4,5.3-5.4,5.3c-3,0-5.4-2.4-5.4-5.3C9.6,225.5,12,223.2,15,223.2z M15,223.7c-2.7,0-4.9,2.2-4.9,4.8 c0,2.6,2.2,4.8,4.9,4.8c2.7,0,4.9-2.2,4.9-4.8C19.9,225.8,17.7,223.7,15,223.7z M14.9,139.4C14.9,139.4,14.9,139.4,14.9,139.4 c-0.7,0.9-1.6,1.5-2.7,1.8c-1.1,0.3-2.2,0.3-3.2,0.1c-0.7-0.1-1.4-0.4-1.8-1c0.2,1.8,1.2,3.6,2.7,4.7c1.3,1,2.9,1.6,4.5,1.6 c0.6,0,1.3,0,1.9,0c0.4,0,0.8-0.1,1.2-0.2c0.8-0.2,1.5-0.6,2.2-1.1c0.1-0.1,0.3-0.2,0.4-0.3c1.4-1.1,2.4-2.8,2.7-4.6 c-0.2,0.5-0.7,0.7-1.2,0.9C19.2,142,16.5,141.2,14.9,139.4z M13.3,134.9c0,0-0.1,3.2,1.5,4.1c0,0,0.1,0.1,0.3,0c0,0,1.2-1.1,0.2-3.6 c0,0-1.1-1.9,0.1-4.7C15.4,130.7,13.3,131.6,13.3,134.9z M29.9,136.4c0.3,1.9-1.5,3.8-4.2,4.5c2.3,1.6,3.4,4,2.4,5.7 c-1,1.7-3.6,1.9-6.1,0.7c0.7,2.7,0,5.3-1.8,5.9c-1.5,0.5-3.3-0.4-4.5-2.2V165c0.6,0.2,1.1,0.8,1.1,1.5c0,0.7-0.5,1.3-1.1,1.5v0.2 c1.2,0.3,2.1,1.3,2.1,2.6c0,1.3-0.9,2.3-2.1,2.6v0.1c0.6,0.2,1.1,0.8,1.1,1.5c0,0.7-0.5,1.3-1.1,1.5v6l0.3,0.8h2.6l-2.1,1.5l0.8,2.4 l-1.5-1.1v5.6l1.2,1.7l-1.2,1.7v1.7l2.8,4l-2.8,4v1.3l1.2,1.7l-1.2,1.7v8.6l1.2,1l-1.1,3.2c0.3,0,0.5,0.1,0.8,0.2l0.4-3.3l2.4-0.7 l1.1,2.2l-2.2,2.4c0.2,0.1,0.4,0.3,0.6,0.4l1.7-2.8l2.4,0.4l0.1,2.4l-3,1.3c0.1,0.2,0.3,0.4,0.4,0.7l2.6-1.9l2.1,1.3l-0.9,2.3 l-3.2,0c0.1,0.3,0.1,0.5,0.1,0.8l3.1-0.6l1.4,2.1l-1.7,1.7L21,230c-0.1,0.3-0.1,0.5-0.2,0.7l3.1,0.7l0.4,2.4l-2.3,0.8l-2.2-2.4 c-0.2,0.2-0.3,0.4-0.5,0.6l2.6,2l-0.6,2.4l-2.4-0.2l-1-3.2c-0.2,0.1-0.5,0.2-0.7,0.3l1.6,2.9l-1.5,1.9l-2.2-1.1l0.4-3.3 c-0.1,0-0.3,0-0.5,0c-0.1,0-0.2,0-0.3,0l0.3,3.3l-2.2,1.1l-1.5-1.9l1.7-2.9c-0.2-0.1-0.5-0.2-0.7-0.3l-1.1,3.1l-2.5,0.1L8,234.8 l2.7-1.9c-0.2-0.2-0.4-0.4-0.6-0.6L8,234.7l-2.3-0.9l0.4-2.4l3.2-0.6c-0.1-0.2-0.2-0.5-0.2-0.7l-3,1.2l-1.8-1.7l1.4-2l3.1,0.7 c0-0.3,0-0.5,0.1-0.8l-3.2-0.1l-0.9-2.3l2.1-1.3l2.6,1.9c0.1-0.2,0.2-0.5,0.4-0.7l-2.9-1.4l0.1-2.5l2.4-0.4l1.6,2.9 c0.2-0.2,0.4-0.3,0.7-0.5l-2.2-2.5l1.1-2.2l2.3,0.7l0.3,3.3c0.3-0.1,0.5-0.1,0.8-0.2l-1-3.2l1.3-1.1l0,0v-8.4l-1.3-1.9l1.3-1.9v-0.8 l-3-4.3l3-4.3v-1.2l-1.3-1.9l1.3-1.9v-5.4l-1.4,1l0.8-2.4l-2.1-1.5h2.6l0.1-0.3v-6.5c-0.7-0.2-1.1-0.8-1.1-1.6s0.5-1.3,1.1-1.6v0 c-1.2-0.3-2.1-1.3-2.1-2.6c0-1.3,0.9-2.3,2.1-2.6v-0.2c-0.7-0.2-1.1-0.8-1.1-1.6s0.5-1.3,1.1-1.6v-14c-1.2,1.9-3.1,2.9-4.6,2.3 c-1.8-0.7-2.5-3.2-1.8-5.9c-2.5,1.2-5.2,0.9-6.1-0.7c-1-1.7,0.1-4.1,2.4-5.7c-2.7-0.7-4.5-2.6-4.2-4.5c0.3-1.9,2.7-3.1,5.5-2.8 c-1.6-2.3-1.8-4.9-0.3-6.2c1.5-1.2,4.1-0.6,6,1.4c0.2-2.5,1.5-4.5,3.2-4.9v-7.4l-1.4,1l0.8-2.4l-2.1-1.5h2.6l0.1-0.3v-8.8l-1.3-1.9 l1.3-1.9v-0.8l-3-4.3l3-4.3v-1.2l-1.3-1.9l1.3-1.9V75.5l-1.4,1l0.8-2.4l-2.1-1.5h2.6l0.1-0.3V60.6c-0.7-0.3-1.2-1-1.2-1.7 c0-0.8,0.5-1.4,1.1-1.7c-1.5-0.3-2.6-1.6-2.6-3.2c0-1.6,1.1-2.9,2.6-3.2v0c-0.7-0.3-1.2-1-1.2-1.7c0-0.8,0.5-1.5,1.2-1.7v-7l-1.4,1 l0.8-2.4l-2.1-1.5h2.6l0.1-0.3v-6.9l-1.3-1.9l1.3-1.9v-0.8l-3-4.3l3-4.3v-1.2L13.1,14l1.3-1.9V0.8h1.2v11.5l1.2,1.7l-1.2,1.7v1.7 l2.8,3.9l-2.8,4v1.3l1.2,1.7L15.7,30v6.6l0.2,0.7h2.6l-2.1,1.5l0.8,2.4l-1.5-1.1v7c0.8,0.2,1.3,0.9,1.3,1.8c0,0.8-0.5,1.5-1.3,1.8 c1.5,0.3,2.6,1.6,2.6,3.2c0,1.5-1.1,2.8-2.5,3.1c0.7,0.3,1.2,1,1.2,1.7c0,0.8-0.6,1.6-1.3,1.8v11.1l0.2,0.7h2.6l-2.1,1.5l0.8,2.4 l-1.5-1.1v11.2l1.2,1.7L15.7,90v1.7l2.8,3.9l-2.8,4v1.3l1.2,1.7l-1.2,1.7v8.5l0.2,0.7h2.6l-2.1,1.5l0.8,2.4l-1.5-1.1v7.5h-0.1 c1.6,0.4,2.9,2.4,3.1,4.8c2-2,4.5-2.6,6-1.4c1.5,1.2,1.3,3.9-0.3,6.2C27.2,133.3,29.6,134.5,29.9,136.4z M11.7,222.6l1-0.4l-0.2-2.4 l-1.6-0.4l-0.8,1.5L11.7,222.6z M8.8,225.9l-2-1.5l-1.4,0.9l0.6,1.6l2.3,0L8.8,225.9z M9.5,232.3l-0.5-1l-2.4,0.5l-0.3,1.6l1.6,0.6 L9.5,232.3z M11.6,234.2l-0.9-0.7l-2,1.4l0.4,1.6l1.7-0.1L11.6,234.2z M14.4,237.5l-0.2-2.3l-1.1-0.3l-1.2,2.1l1,1.3L14.4,237.5z M17,234.9l-1.1,0.2l-0.3,2.4l1.5,0.8l1-1.3L17,234.9z M18.5,234.1l0.7,2.3l1.7,0.1l0.4-1.6l-1.9-1.4L18.5,234.1z M20.5,232.2 l1.6,1.8l1.6-0.6l-0.3-1.7l-2.3-0.5L20.5,232.2z M21.1,225.8l0.3,1.1l2.4,0l0.6-1.5l-1.4-0.9L21.1,225.8z M17.1,222.1l1,0.5l1.6-1.8 l-0.7-1.5l-1.6,0.4L17.1,222.1z M15,129.5c-5.2,0-9.5,4.3-9.5,9.5s4.3,9.5,9.5,9.5c5.2,0,9.5-4.3,9.5-9.5S20.2,129.5,15,129.5z M10.4,223.6l-1.2-2.1l-1.6,0.2l-0.1,1.7l2.1,1L10.4,223.6z M8.4,229.8l-0.1-1.1L6,228.1l-0.9,1.4l1.2,1.2L8.4,229.8z M21.5,229.6 l2.2,1l1.2-1.2l-0.9-1.4l-2.3,0.4L21.5,229.6z M19.5,223.5l0.7,0.9l2.2-1l-0.1-1.7l-1.7-0.2L19.5,223.5z M15,222.7 c-3.2,0-5.8,2.6-5.8,5.7c0,3.1,2.6,5.7,5.8,5.7s5.8-2.6,5.8-5.7C20.8,225.3,18.2,222.7,15,222.7z M16.3,219.5l-1.1-0.9l0,0h-0.3l0,0 l-1.1,0.9l0.7,2.2l1.1,0L16.3,219.5z M326.7,29.5c-0.9,0.2-1.7,0.2-2.6-0.1c-0.8-0.2-1.6-0.7-2.1-1.4c0,0,0,0,0,0 c-1.2,1.5-3.4,2.1-5.2,1.5c-0.4-0.1-0.8-0.3-1-0.7c0.2,1.4,1,2.7,2.1,3.6c0.1,0.1,0.2,0.2,0.3,0.2c0.5,0.4,1.1,0.7,1.7,0.8 c0.3,0.1,0.6,0.2,0.9,0.2c0.5,0.1,1,0.1,1.5,0c1.3,0,2.6-0.5,3.6-1.3c1.1-0.9,1.9-2.3,2.1-3.8C327.9,29.2,327.3,29.4,326.7,29.5z M321.9,27.7c0.1,0,0.2,0,0.2,0c1.3-0.6,1.2-3.2,1.2-3.2c0-2.6-1.7-3.3-1.7-3.3c0.9,2.3,0,3.8,0,3.8C321,26.9,321.9,27.7,321.9,27.7 z M321.9,135.7C321.9,135.7,321.9,135.7,321.9,135.7c-1.4,1.7-3.8,2.4-5.9,1.7c-0.4-0.1-0.9-0.4-1.1-0.8c0.3,1.6,1.1,3.1,2.4,4.1 c0.1,0.1,0.2,0.2,0.4,0.3c0.6,0.4,1.3,0.7,2,0.9c0.4,0.1,0.7,0.2,1.1,0.2c0.6,0.1,1.1,0.1,1.7,0c1.5,0,2.9-0.6,4-1.5 c1.3-1,2.2-2.6,2.4-4.2c-0.3,0.6-1,0.8-1.6,0.9c-1,0.2-2,0.2-2.9-0.1C323.4,137,322.5,136.5,321.9,135.7z M321.6,132.1 c-0.9,2.2,0.2,3.2,0.2,3.2c0.2,0,0.3,0,0.3,0c1.5-0.7,1.4-3.6,1.4-3.6c0-2.9-1.9-3.7-1.9-3.7C322.5,130.4,321.6,132.1,321.6,132.1z M321.9,125.6c4.9,0,9,4,9,9s-4,9-9,9c-4.9,0-9-4-9-9S316.9,125.6,321.9,125.6z M321.9,125.9c-4.8,0-8.7,3.9-8.7,8.7 c0,4.8,3.9,8.7,8.7,8.7c4.8,0,8.7-3.9,8.7-8.7C330.5,129.8,326.7,125.9,321.9,125.9z M331.4,30.2c-0.1,0.4-0.2,0.8-0.4,1.1l4.9,1 l0.6,3.8l-3.6,1.4l-3.4-3.7c-0.3,0.3-0.6,0.6-0.8,0.9l4.2,3l-0.9,3.7L328,41l-1.7-4.8c-0.4,0.2-0.7,0.3-1.1,0.5l2.6,4.5l-2.4,3 l-3-1.6v10.8c0.5,0.2,0.9,0.8,0.9,1.4s-0.4,1.1-0.9,1.4v0.3c0.9,0.3,1.6,1.1,1.6,2.1c0,1-0.7,1.9-1.6,2.1v0.8l3.5,4.9l-3.5,4.9v1.6 l4.7,6.7l-4.7,6.7v1.2l3.7,5.3l-3.7,5.3v0.4c0.9,0.3,1.6,1.1,1.6,2.1c0,1-0.7,1.9-1.6,2.1v0.1c0.5,0.2,0.9,0.8,0.9,1.4 s-0.4,1.1-0.9,1.4v13.4l1.2,1.4c0.9,1.1,1.2,2.5,0.8,3.8c0,0,0,0,0,0c0.1,0,0.1,0,0.2,0c0.3-1.4,1.4-2.5,2.8-3l2.7-0.8l0.5,2.7 c0.3,1.4-0.2,2.8-1.2,3.7c0,0,0,0,0,0c0,0,0.1,0.1,0.1,0.1c0,0,0,0,0,0c1-1.1,2.4-1.5,3.9-1.2l2.7,0.6l-0.9,2.6 c-0.5,1.4-1.6,2.3-2.9,2.6c0,0.1,0,0.1,0,0.2c1.4-0.4,2.9-0.1,4,0.9l2,1.9l-2.1,1.8c-1.1,0.9-2.5,1.2-3.8,0.8c0,0.1,0,0.1,0,0.2 c0,0,0,0,0,0c1.4,0.3,2.5,1.4,3,2.8l0.8,2.7l-2.7,0.5c-1.4,0.3-2.8-0.2-3.7-1.2c0,0-0.1,0.1-0.1,0.1c1.1,1,1.5,2.4,1.2,3.9l-0.6,2.7 l-2.6-0.9c-1.4-0.5-2.3-1.6-2.6-2.9c-0.1,0-0.1,0-0.2,0c0,0,0,0,0,0c0.4,1.4,0.1,2.9-0.9,4l-1.9,2L320,149c-0.9-1.1-1.2-2.5-0.8-3.8 c0,0,0,0,0,0c-0.1,0-0.1,0-0.2,0l0,0c-0.3,1.4-1.4,2.5-2.8,3l-2.7,0.8l-0.5-2.7c-0.3-1.4,0.2-2.8,1.2-3.7c0,0,0,0,0,0 c0,0-0.1-0.1-0.1-0.1c-1,1.1-2.4,1.5-3.9,1.2l-2.7-0.6l0.9-2.6c0.5-1.4,1.6-2.3,2.9-2.6c0-0.1,0-0.1,0-0.2c-1.4,0.4-2.9,0.1-4-0.9 l-2-1.9l2.1-1.8c1.1-0.9,2.5-1.2,3.8-0.8c0-0.1,0-0.1,0-0.2c0,0,0,0,0,0c-1.4-0.3-2.5-1.4-3-2.8l-0.8-2.7l2.7-0.5 c1.4-0.3,2.8,0.2,3.7,1.2c0,0,0.1-0.1,0.1-0.1c0,0,0,0,0,0c-1.1-1-1.5-2.4-1.2-3.9l0.6-2.7l2.6,0.9c1.4,0.5,2.3,1.6,2.6,2.9 c0,0,0,0,0,0c0,0,0.1,0,0.2,0c0,0,0,0,0,0c-0.4-1.4-0.1-2.9,0.9-4l1.2-1.3v-13.5c-0.5-0.2-0.9-0.8-0.9-1.4s0.4-1.1,0.9-1.4v-0.1 c-0.9-0.3-1.6-1.1-1.6-2.1c0-1,0.7-1.9,1.6-2.1v-0.4l-3.7-5.3l3.7-5.3v-1.2l-4.7-6.7l4.7-6.7v-1.6l-3.5-4.9l3.5-4.9v-0.8 c-0.9-0.3-1.6-1.1-1.6-2.1c0-1,0.7-1.9,1.6-2.1v-0.3c-0.5-0.2-0.9-0.8-0.9-1.4s0.4-1.1,0.9-1.4V42.7l0,0l-2.6,1.4l-2.4-3l2.5-4.5 c-0.4-0.1-0.8-0.3-1.1-0.5l-1.6,4.9l-3.8,0.2l-1-3.7l4.1-3.1c-0.3-0.3-0.6-0.6-0.8-0.9l-3.4,3.8l-3.6-1.3l0.6-3.8l4.9-1.1 c-0.2-0.4-0.3-0.8-0.4-1.1l-4.6,2.1l-2.7-2.7l2.1-3.2l4.9,0.9c0-0.4,0.1-0.8,0.1-1.2l-5,0l-1.4-3.5l3.2-2.1l4.1,2.9 c0.2-0.4,0.4-0.7,0.6-1l-4.7-2l0.2-3.8l3.8-0.6l2.6,4.4c0.3-0.3,0.7-0.5,1-0.7l-3.5-3.8l1.7-3.4l3.7,1l0.6,5.1 c0.4-0.1,0.8-0.2,1.2-0.2l-1.7-4.9l2.1-1.7V0h1.3v11.3l2.5,2.1l-1.5,4.9c0.4,0.1,0.8,0.1,1.2,0.3l0.5-5.2l3.7-1l1.7,3.4l-3.4,3.9 c0.4,0.2,0.7,0.5,1,0.7l2.5-4.5l3.8,0.6l0.2,3.8l-4.6,2.1c0.2,0.3,0.4,0.7,0.6,1.1l4.1-3l3.2,2l-1.4,3.6l-5,0.1 c0.1,0.4,0.1,0.8,0.1,1.2l4.9-1.1l2.1,3.2l-2.7,2.7L331.4,30.2z M331.6,23.7l0.6,1.6l3.7-0.1l1-2.4l-2.2-1.4L331.6,23.7z M325.5,17.9l1.6,0.7l2.4-2.8l-1.2-2.3l-2.5,0.7L325.5,17.9z M317.1,18.6l1.6-0.8l-0.4-3.6l-2.5-0.7l-1.1,2.3L317.1,18.6z M312.4,23.5l-3-2.1l-2.2,1.4l1,2.4l3.8,0L312.4,23.5z M313.5,33.5l-0.9-1.5l-3.6,0.8l-0.4,2.6l2.4,0.9L313.5,33.5z M316.6,36.5 l-1.4-1l-2.9,2.2l0.7,2.5l2.6-0.2L316.6,36.5z M327.3,36.6l1.2,3.5l2.6,0.2l0.6-2.5l-3.1-2.2L327.3,36.6z M330.5,33.7l2.5,2.7 l2.4-0.9l-0.4-2.5l-3.7-0.8L330.5,33.7z M332.2,29.7l3.4,1.4l1.9-1.8l-1.4-2.2l-3.7,0.8L332.2,29.7z M329.2,20.2l1.2,1.3l3.3-1.6 l-0.1-2.6l-2.6-0.4L329.2,20.2z M321.2,17.3l1.7-0.1l1.1-3.5l-2-1.7l-2,1.6L321.2,17.3z M314.9,20l-1.9-3.1l-2.6,0.4l-0.1,2.6 l3.5,1.5L314.9,20z M311.8,29.5l-0.2-1.7l-3.6-0.7l-1.4,2.2l1.8,1.8L311.8,29.5z M321.1,41.7l-0.4-3.7l-1.7-0.3l-1.8,3.2l1.6,2 L321.1,41.7z M314.5,126.6c1.1-1,2.5-1.8,3.9-2.3c-0.3-1.2-1.2-2.1-2.3-2.6l-2.3-0.9l-0.4,2.4C313.3,124.4,313.7,125.7,314.5,126.6z M311.5,131.4c0.5-1.5,1.3-2.8,2.3-4c-0.9-0.8-2.1-1.2-3.3-1.1l-2.4,0.3l0.8,2.3C309.3,130.1,310.3,131,311.5,131.4z M311.3,137 C311.3,137,311.3,137,311.3,137c-0.2-0.8-0.3-1.6-0.3-2.4c0-0.8,0.1-1.5,0.2-2.2c-1.2-0.3-2.4,0-3.4,0.7l-1.9,1.5l1.9,1.6 C308.8,137,310.1,137.3,311.3,137z M313.9,142C313.9,142,313.9,142,313.9,142c-1-1.1-1.8-2.5-2.3-3.9c0,0,0,0,0,0 c-1.2,0.3-2.1,1.2-2.6,2.3l-0.9,2.3l2.4,0.4C311.7,143.2,313,142.8,313.9,142z M318.6,145c-1.5-0.5-2.8-1.2-4-2.3c0,0,0,0,0,0 c-0.8,0.9-1.2,2.1-1.1,3.3l0.3,2.4l2.3-0.8C317.4,147.1,318.3,146.2,318.6,145z M324.2,145.2c-0.8,0.2-1.6,0.3-2.4,0.3 c-0.8,0-1.5-0.1-2.2-0.2c0,0,0,0,0,0c-0.3,1.2,0,2.4,0.7,3.4l1.5,1.9l1.6-1.9C324.2,147.7,324.5,146.4,324.2,145.2z M329.2,142.6 c-1.1,1-2.5,1.8-3.9,2.3c0,0,0,0,0,0c0.3,1.2,1.2,2.1,2.3,2.6l2.3,0.9l0.4-2.4C330.5,144.8,330.1,143.5,329.2,142.6z M332.2,137.8 c-0.5,1.5-1.2,2.8-2.3,4c0.9,0.8,2.1,1.3,3.3,1.1l2.4-0.3l-0.8-2.3C334.4,139.1,333.4,138.2,332.2,137.8z M332.5,132.2 C332.5,132.2,332.5,132.2,332.5,132.2c0.2,0.8,0.3,1.6,0.3,2.4c0,0.8-0.1,1.5-0.2,2.2c1.2,0.3,2.4,0,3.4-0.7l1.9-1.5l-1.9-1.6 C335,132.2,333.7,131.9,332.5,132.2z M329.8,127.3C329.8,127.3,329.8,127.3,329.8,127.3c1,1.1,1.8,2.5,2.3,3.9c0,0,0,0,0,0 c1.2-0.3,2.1-1.2,2.6-2.3l0.9-2.3l-2.4-0.4C332,126,330.8,126.4,329.8,127.3z M325.1,124.2c1.5,0.5,2.8,1.3,4,2.3 c0.8-0.9,1.3-2.1,1.1-3.3l-0.3-2.4l-2.3,0.8C326.4,122.1,325.5,123,325.1,124.2z M321.9,124.1c-5.8,0-10.5,4.7-10.5,10.5 c0,5.8,4.7,10.5,10.5,10.5c5.8,0,10.5-4.7,10.5-10.5C332.4,128.8,327.7,124.1,321.9,124.1z M323.4,120.6l-1.2-1.5h-0.7l-1.2,1.5 c-0.8,1-1.1,2.3-0.8,3.5c0.8-0.2,1.5-0.3,2.4-0.3c0.8,0,1.5,0.1,2.2,0.2C324.3,122.8,324.1,121.6,323.4,120.6z M324.9,37.6l-1.7,0.4 l-0.3,3.6l2.3,1.2l1.6-2L324.9,37.6z M322.5,37.2c-0.2,0-0.3,0-0.5,0c-0.2,0-0.5,0-0.7,0l0.5,4.3l0,0h0.4v0L322.5,37.2z M331.1,27.7 c0-4.9-4.1-8.9-9.1-8.9c-5,0-9.1,4-9.1,8.9c0,4.9,4.1,8.9,9.1,8.9C327,36.6,331.1,32.6,331.1,27.7z M330.3,27.7 c0,4.5-3.7,8.1-8.3,8.1c-4.6,0-8.3-3.7-8.3-8.1c0-4.5,3.7-8.2,8.3-8.2C326.6,19.5,330.3,23.2,330.3,27.7z M329.7,27.7 c0-4.1-3.4-7.5-7.7-7.5c-4.2,0-7.7,3.4-7.7,7.5c0,4.1,3.4,7.5,7.7,7.5C326.2,35.2,329.7,31.8,329.7,27.7z M355.3,192.1 c-0.6,1.4,0.4,3,2,3h0c1.6,0,2.7-1.6,2-3l-0.1-0.2l-1.9-3.2l-1.9,3.2L355.3,192.1z M352.8,185.7c-1.4-0.6-3,0.4-3,2s1.6,2.7,3,2 l0.2-0.1l3.2-1.9l-3.2-1.9L352.8,185.7z M361.8,189.7c1.4,0.6,3-0.4,3-2s-1.6-2.7-3-2l-0.2,0.1l-3.2,1.9l3.2,1.9L361.8,189.7z M371.7,101.4l2.1,1.9l-2.1,1.8c-1.1,0.9-2.5,1.2-3.9,0.8c0,0,0,0,0,0c0,0.1,0,0.1,0,0.2c0,0,0,0,0,0c1.4,0.3,2.5,1.4,3,2.8l0.8,2.7 l-2.8,0.5c-1.4,0.3-2.8-0.2-3.8-1.2c0,0,0,0,0,0c0,0-0.1,0.1-0.1,0.1c0,0,0,0,0,0c1.1,1,1.5,2.4,1.2,3.9l-0.6,2.7l-2.6-0.9 c-1.4-0.5-2.3-1.6-2.6-2.9c-0.1,0-0.1,0-0.2,0c0,0,0,0,0,0c0.4,1.4,0.1,2.9-0.9,4l-1.2,1.3v12c0.7,0.2,1.2,0.9,1.2,1.7 s-0.5,1.4-1.2,1.7v0.2c1.3,0.3,2.3,1.4,2.3,2.7s-1,2.4-2.3,2.7v0c0.7,0.2,1.2,0.9,1.2,1.7s-0.5,1.4-1.2,1.7v6.9l0.1,0.4h2.6 l-2.1,1.5l0.8,2.4l-1.4-1v5.6l1.4,2l-1.4,2v1.2l3.2,4.6l-3.2,4.6v0.8l1.4,2l-1.4,2v8.8l0,0l3.6-2.2l0.3-0.1c0.9-0.4,1.9-0.3,2.7,0.2 c0.9,0.6,1.4,1.5,1.4,2.6s-0.5,2-1.4,2.6c-0.5,0.3-1,0.5-1.5,0.5c-0.4,0-0.8-0.1-1.2-0.3l-0.3-0.1l-4-2.4l2.4,4l0.1,0.3 c0.4,0.9,0.3,1.9-0.2,2.7c-0.6,0.9-1.5,1.4-2.6,1.4c-1.1,0-2-0.5-2.6-1.4c-0.5-0.8-0.6-1.8-0.2-2.7l0.1-0.3l2.4-3.9l-3.9,2.4 l-0.3,0.1c-0.4,0.2-0.8,0.3-1.2,0.3c-0.5,0-1-0.1-1.5-0.5c-0.9-0.6-1.4-1.5-1.4-2.6s0.5-2,1.4-2.6c0.8-0.5,1.8-0.6,2.7-0.2l0.3,0.1 l3.5,2.1v-8.9l-1.3-1.9l1.3-1.9v-1.3l-3-4.2l3-4.2v-1.7l-1.3-1.9l1.3-1.9v-5.8l-1.5,1.1l0.8-2.4l-2.1-1.5h2.6l0.2-0.6v-6.7 c-0.7-0.3-1.2-0.9-1.2-1.6s0.5-1.4,1.2-1.6v0c-1.3-0.3-2.3-1.4-2.3-2.7s1-2.4,2.3-2.7v-0.2c-0.7-0.3-1.2-0.9-1.2-1.6 s0.5-1.4,1.2-1.6v-12l-1.2-1.4c-0.9-1.1-1.2-2.5-0.8-3.9c0,0,0,0,0,0c0,0-0.1,0-0.2,0c-0.3,1.4-1.4,2.5-2.8,3l-2.7,0.8l-0.5-2.8 c-0.3-1.4,0.2-2.8,1.2-3.7c0,0-0.1-0.1-0.1-0.1c-1,1.1-2.4,1.5-3.9,1.2l-2.7-0.6l0.9-2.6c0.5-1.4,1.6-2.3,2.9-2.6c0-0.1,0-0.1,0-0.2 c-1.4,0.4-2.9,0.1-4-0.9l-2.1-1.9l2.1-1.8c1.1-0.9,2.5-1.2,3.8-0.8c0,0,0,0,0,0c0-0.1,0-0.1,0-0.2c-1.4-0.3-2.5-1.4-3-2.8l-0.8-2.7 l2.8-0.5c1.4-0.3,2.8,0.2,3.7,1.2c0,0,0,0,0,0c0,0,0.1-0.1,0.1-0.1c0,0,0,0,0,0c-1.1-1-1.5-2.4-1.2-3.9l0.6-2.7l2.6,0.9 c1.4,0.5,2.3,1.6,2.6,2.9c0.1,0,0.1,0,0.2,0c0,0,0,0,0,0c-0.4-1.4-0.1-2.9,0.9-4l1.3-1.4V67l-1.3-1.9l1.3-1.9V62l-3-4.2l3-4.2v-1.7 l-1.3-1.9l1.3-1.9V36.6l-1.6,1.1l0.8-2.4l-2.1-1.5h2.6l0.3-0.8V20.8c-0.8-0.2-1.4-1-1.4-1.9c0-0.8,0.5-1.6,1.3-1.8 c-1.5-0.4-2.6-1.7-2.6-3.3c0-1.6,1.2-3,2.7-3.3c-0.8-0.3-1.4-1-1.4-1.9c0-0.9,0.6-1.7,1.4-1.9V0h1.3v6.7c0.7,0.3,1.3,1,1.3,1.9 s-0.5,1.6-1.3,1.9v0c1.6,0.3,2.8,1.7,2.8,3.4c0,1.6-1.2,3-2.7,3.3c0.7,0.3,1.2,1,1.2,1.8c0,0.8-0.5,1.6-1.3,1.9v12.9l0.1,0.2h2.6 l-2.1,1.5l0.8,2.4l-1.3-1V48l1.4,2l-1.4,2v1.1l3.2,4.6l-3.2,4.6v0.7l1.4,2l-1.4,2v20.2l1.2,1.4c0.9,1.1,1.2,2.5,0.8,3.9 c0,0,0.1,0,0.2,0c0,0,0,0,0,0c0.3-1.4,1.4-2.5,2.8-3l2.7-0.8l0.5,2.8c0.3,1.4-0.2,2.8-1.2,3.7c0,0,0,0,0,0c0,0,0.1,0.1,0.1,0.1 c0,0,0,0,0,0c1-1.1,2.4-1.5,3.9-1.2l2.7,0.6l-0.9,2.6c-0.5,1.4-1.6,2.3-2.9,2.6c0,0,0,0.1,0,0.2c0,0,0,0,0,0 C369.1,100,370.6,100.4,371.7,101.4z M365.3,95.9c1,1.1,1.8,2.5,2.3,4c1.2-0.3,2.1-1.2,2.6-2.3l0.9-2.3l-2.4-0.4 C367.4,94.6,366.2,95,365.3,95.9z M360.5,92.9C360.5,92.9,360.5,92.9,360.5,92.9c1.5,0.5,2.9,1.2,4,2.3c0.8-0.9,1.3-2.1,1.1-3.3 l-0.3-2.4l-2.3,0.8C361.7,90.7,360.8,91.7,360.5,92.9z M354.8,92.6C354.8,92.6,354.8,92.6,354.8,92.6c0.8-0.2,1.6-0.3,2.4-0.3 c0.8,0,1.5,0.1,2.2,0.2c0.3-1.2,0-2.4-0.7-3.4l-1.2-1.5h-0.7l-1.2,1.4C354.8,90.1,354.5,91.4,354.8,92.6z M349.8,95.3 c1.1-1,2.5-1.8,4-2.3c-0.3-1.2-1.2-2.1-2.3-2.6l-2.3-0.9l-0.4,2.4C348.6,93.1,349,94.3,349.8,95.3z M346.8,100 C346.8,100,346.8,100,346.8,100c0.5-1.5,1.2-2.9,2.3-4c-0.9-0.8-2.1-1.2-3.3-1.1l-2.4,0.3l0.8,2.3C344.6,98.8,345.6,99.7,346.8,100z M346.6,105.7c-0.2-0.8-0.3-1.6-0.3-2.4c0-0.8,0.1-1.5,0.2-2.2c-1.2-0.3-2.4,0-3.4,0.7l-2,1.5l1.9,1.6 C344.1,105.7,345.4,106,346.6,105.7z M349.2,110.7c-1-1.1-1.8-2.5-2.3-4c0,0,0,0,0,0c-1.2,0.3-2.1,1.2-2.6,2.3l-0.9,2.3l2.4,0.4 C347,111.9,348.3,111.5,349.2,110.7z M354,113.7C354,113.7,354,113.7,354,113.7c-1.5-0.5-2.9-1.2-4-2.3c-0.8,0.9-1.3,2.1-1.1,3.3 l0.3,2.4l2.3-0.8C352.7,115.9,353.6,114.9,354,113.7z M357,187.8L357,187.8l-0.3,0v-0.4l-3.6-2.2l-0.3-0.1c-0.4-0.2-0.7-0.2-1.1-0.2 c-0.5,0-1,0.1-1.4,0.4c-0.8,0.5-1.3,1.4-1.3,2.4c0,1,0.5,1.9,1.3,2.4c0.8,0.5,1.7,0.6,2.5,0.2l0.3-0.1L357,187.8z M357.3,187.9 l-2.5,4.1l-0.1,0.3c-0.4,0.8-0.3,1.7,0.2,2.5c0.5,0.8,1.4,1.3,2.4,1.3c1,0,1.9-0.5,2.4-1.3c0.5-0.8,0.6-1.7,0.2-2.5l-0.1-0.3 L357.3,187.9z M357.9,187.5v0.3h-0.2l0,0l4,2.4l0.3,0.1c0.8,0.4,1.7,0.3,2.5-0.2c0.8-0.5,1.3-1.4,1.3-2.4c0-1-0.5-1.9-1.3-2.4 c-0.8-0.5-1.7-0.6-2.5-0.2l-0.3,0.1L357.9,187.5L357.9,187.5z M359.6,113.9c-0.8,0.2-1.6,0.3-2.4,0.3c-0.8,0-1.5-0.1-2.2-0.2 c-0.3,1.2,0,2.4,0.7,3.4l1.3,1.7h0.5l1.3-1.6C359.6,116.5,359.9,115.2,359.6,113.9z M367.8,103.3c0-5.8-4.7-10.6-10.6-10.6 s-10.6,4.7-10.6,10.6c0,5.8,4.7,10.6,10.6,10.6S367.8,109.1,367.8,103.3z M364.6,111.3C364.6,111.3,364.6,111.3,364.6,111.3 c-1.1,1-2.5,1.8-4,2.3c0,0,0,0,0,0c0.3,1.2,1.2,2.1,2.3,2.6l2.3,0.9l0.4-2.4C365.9,113.5,365.5,112.2,364.6,111.3z M367.6,106.5 C367.6,106.5,367.6,106.5,367.6,106.5c-0.5,1.5-1.2,2.9-2.3,4c0.9,0.8,2.1,1.3,3.3,1.1l2.4-0.3l-0.8-2.3 C369.8,107.8,368.8,106.9,367.6,106.5z M373.3,103.3l-1.9-1.6c-1-0.8-2.3-1.1-3.5-0.8c0,0,0,0,0,0c0.2,0.8,0.3,1.6,0.3,2.4 c0,0.8-0.1,1.5-0.2,2.2c1.2,0.3,2.4,0,3.4-0.7L373.3,103.3z M366.2,103.3c0,5-4,9-9,9c-5,0-9-4-9-9c0-5,4-9,9-9 C362.2,94.3,366.2,98.3,366.2,103.3z M366,103.3c0-4.8-3.9-8.7-8.7-8.7s-8.7,3.9-8.7,8.7c0,4.8,3.9,8.7,8.7,8.7S366,108.1,366,103.3 z M362.4,105.5c-0.9,0.2-1.9,0.2-2.8-0.1c-0.9-0.3-1.8-0.8-2.3-1.5c0,0,0,0,0,0c-1.3,1.6-3.7,2.3-5.7,1.6c-0.4-0.1-0.9-0.4-1.1-0.8 c0.3,1.5,1.1,3,2.3,4c0.1,0.1,0.2,0.2,0.4,0.3c0.6,0.4,1.2,0.7,1.9,0.9c0.3,0.1,0.7,0.2,1,0.2c0.5,0.1,1.1,0.1,1.6,0 c1.4,0,2.8-0.5,3.9-1.4c1.2-1,2.1-2.5,2.3-4.1C363.7,105.2,363,105.4,362.4,105.5z M357.1,103.6c0.2,0,0.3,0,0.3,0 c1.4-0.7,1.3-3.5,1.3-3.5c0-2.8-1.8-3.6-1.8-3.6c1,2.5,0,4.1,0,4.1C356.1,102.6,357.1,103.6,357.1,103.6z M392.5,228.8 C392.5,228.8,392.5,228.8,392.5,228.8c-0.7,0.9-2,1.3-3.1,0.9c-0.2-0.1-0.5-0.2-0.6-0.4c0.1,0.8,0.6,1.6,1.3,2.2 c0.1,0.1,0.1,0.1,0.2,0.1c0.3,0.2,0.7,0.4,1,0.5c0.2,0.1,0.4,0.1,0.6,0.1c0.3,0,0.6,0,0.9,0c0.8,0,1.5-0.3,2.2-0.8 c0.7-0.6,1.1-1.4,1.3-2.3c-0.2,0.3-0.5,0.4-0.8,0.5c-0.5,0.1-1,0.1-1.6,0C393.3,229.5,392.8,229.2,392.5,228.8z M392.3,226.9 c-0.5,1.2,0.1,1.7,0.1,1.7c0.1,0,0.1,0,0.1,0c0.8-0.4,0.7-1.9,0.7-1.9c0-1.6-1-2-1-2C392.8,226,392.3,226.9,392.3,226.9z M392.4,223.2c3,0,5.4,2.4,5.4,5.3c0,2.9-2.4,5.3-5.4,5.3c-3,0-5.4-2.4-5.4-5.3C387.1,225.5,389.5,223.2,392.4,223.2z M392.4,223.7 c-2.7,0-4.9,2.2-4.9,4.8c0,2.6,2.2,4.8,4.9,4.8c2.7,0,4.9-2.2,4.9-4.8C397.3,225.8,395.1,223.7,392.4,223.7z M392.5,139.4 C392.5,139.4,392.5,139.4,392.5,139.4c-1.6,1.9-4.3,2.6-6.6,1.9c-0.5-0.2-1-0.4-1.2-0.9c0.3,1.8,1.3,3.4,2.7,4.6 c0.1,0.1,0.3,0.2,0.4,0.3c0.7,0.5,1.4,0.8,2.2,1.1c0.4,0.1,0.8,0.2,1.2,0.2c0.6,0.1,1.2,0.1,1.9,0c1.6,0,3.2-0.6,4.5-1.6 c1.4-1.2,2.4-2.9,2.7-4.7c-0.3,0.6-1.1,0.9-1.8,1c-1.1,0.2-2.2,0.2-3.2-0.1C394.1,140.9,393.2,140.3,392.5,139.4z M392.1,135.4 c-1,2.5,0.2,3.6,0.2,3.6c0.2,0,0.3,0,0.3,0c1.7-0.8,1.5-4.1,1.5-4.1c0-3.2-2.1-4.2-2.1-4.2C393.2,133.5,392.1,135.4,392.1,135.4z M403.2,140.9c2.3,1.6,3.4,4,2.4,5.7c-1,1.7-3.6,1.9-6.1,0.7c0.7,2.7,0,5.3-1.8,5.9c-1.5,0.6-3.4-0.4-4.6-2.3v14 c0.7,0.2,1.1,0.8,1.1,1.6s-0.5,1.3-1.1,1.6v0.2c1.2,0.3,2.1,1.3,2.1,2.6c0,1.3-0.9,2.3-2.1,2.6v0c0.7,0.2,1.1,0.8,1.1,1.6 s-0.5,1.3-1.1,1.6v6.5l0.1,0.3h2.6l-2.1,1.5l0.8,2.4l-1.4-1v5.4l1.3,1.9l-1.3,1.9v1.2l3,4.3l-3,4.3v0.8l1.3,1.9l-1.3,1.9v8.4l0,0 l1.3,1.1l-1,3.2c0.3,0,0.5,0.1,0.8,0.2l0.3-3.3l2.3-0.7l1.1,2.2l-2.2,2.5c0.2,0.1,0.4,0.3,0.7,0.5l1.6-2.9l2.4,0.4l0.1,2.5l-2.9,1.4 c0.1,0.2,0.3,0.4,0.4,0.7l2.6-1.9l2.1,1.3l-0.9,2.3l-3.2,0.1c0,0.2,0.1,0.5,0.1,0.8l3.1-0.7l1.4,2l-1.8,1.7l-3-1.2 c-0.1,0.3-0.1,0.5-0.2,0.7l3.2,0.6l0.4,2.4l-2.3,0.9l-2.2-2.4c-0.2,0.2-0.4,0.4-0.6,0.6l2.7,1.9l-0.6,2.4l-2.5-0.1l-1.1-3.1 c-0.2,0.1-0.5,0.2-0.7,0.3l1.7,2.9l-1.5,1.9l-2.2-1.1l0.3-3.3c-0.1,0-0.2,0-0.3,0c-0.1,0-0.3,0-0.5,0l0.4,3.3l-2.2,1.1l-1.5-1.9 l1.6-2.9c-0.2-0.1-0.5-0.2-0.7-0.3l-1,3.2l-2.4,0.2l-0.6-2.4l2.6-2c-0.2-0.2-0.4-0.4-0.5-0.6l-2.2,2.4l-2.3-0.8l0.4-2.4l3.1-0.7 c-0.1-0.2-0.2-0.5-0.2-0.7l-2.9,1.3l-1.7-1.7l1.4-2.1l3.1,0.6c0-0.3,0-0.5,0.1-0.8l-3.2,0l-0.9-2.3l2.1-1.3l2.6,1.9 c0.1-0.2,0.3-0.5,0.4-0.7l-3-1.3l0.1-2.4l2.4-0.4l1.7,2.8c0.2-0.2,0.4-0.3,0.6-0.4l-2.2-2.4l1.1-2.2l2.4,0.7l0.4,3.3 c0.3-0.1,0.5-0.1,0.8-0.2l-1.1-3.2l1.2-1v-8.6l-1.2-1.7l1.2-1.7v-1.3l-2.8-4l2.8-4v-1.7l-1.2-1.7l1.2-1.7v-5.6l-1.5,1.1l0.8-2.4 l-2.1-1.5h2.6l0.3-0.8v-6c-0.6-0.2-1.1-0.8-1.1-1.5c0-0.7,0.5-1.3,1.1-1.5v-0.1c-1.2-0.3-2.1-1.3-2.1-2.6c0-1.3,0.9-2.3,2.1-2.6 v-0.2c-0.6-0.2-1.1-0.8-1.1-1.5c0-0.7,0.5-1.3,1.1-1.5v-13.9c-1.2,1.8-3,2.7-4.5,2.2c-1.8-0.7-2.5-3.2-1.8-5.9 c-2.5,1.2-5.2,0.9-6.1-0.7c-1-1.7,0.1-4.1,2.4-5.7c-2.7-0.7-4.5-2.6-4.2-4.5c0.3-1.9,2.7-3.1,5.5-2.8c-1.6-2.3-1.8-4.9-0.3-6.2 c1.5-1.2,4.1-0.6,6,1.4c0.2-2.5,1.5-4.4,3.1-4.8h-0.1v-7.5l-1.5,1.1l0.8-2.4l-2.1-1.5h2.6l0.2-0.7v-8.5l-1.2-1.7l1.2-1.7v-1.3 l-2.8-4l2.8-3.9V90l-1.2-1.7l1.2-1.7V75.4l-1.5,1.1l0.8-2.4l-2.1-1.5h2.6l0.2-0.7V60.7c-0.8-0.2-1.3-0.9-1.3-1.8 c0-0.8,0.5-1.5,1.2-1.7c-1.4-0.3-2.5-1.6-2.5-3.1c0-1.6,1.1-2.9,2.6-3.2c-0.7-0.3-1.3-0.9-1.3-1.8c0-0.8,0.6-1.6,1.3-1.8v-7 l-1.5,1.1l0.8-2.4l-2.1-1.5h2.6l0.2-0.7V30l-1.2-1.7l1.2-1.7v-1.3l-2.8-4l2.8-3.9v-1.7l-1.2-1.7l1.2-1.7V0.8h1.2v11.3l1.3,1.9 l-1.3,1.9V17l3,4.3l-3,4.3v0.8l1.3,1.9l-1.3,1.9v6.9l0.1,0.3h2.6l-2.1,1.5l0.8,2.4l-1.4-1v7c0.7,0.3,1.2,1,1.2,1.7 c0,0.8-0.5,1.5-1.2,1.7v0c1.5,0.3,2.6,1.6,2.6,3.2c0,1.6-1.1,2.9-2.6,3.2c0.7,0.3,1.1,1,1.1,1.7c0,0.8-0.5,1.5-1.2,1.7v11.6l0.1,0.3 h2.6l-2.1,1.5l0.8,2.4l-1.4-1v10.9l1.3,1.9l-1.3,1.9v1.2l3,4.3l-3,4.3v0.8l1.3,1.9l-1.3,1.9v8.8l0.1,0.3h2.6l-2.1,1.5l0.8,2.4 l-1.4-1v7.4c1.7,0.4,3,2.4,3.2,4.9c2-2,4.5-2.6,6-1.4c1.5,1.2,1.3,3.9-0.3,6.2c2.8-0.3,5.2,0.9,5.5,2.8 C407.7,138.3,405.9,140.2,403.2,140.9z M389.3,222.6l1-0.5l-0.3-2.3l-1.6-0.4l-0.7,1.5L389.3,222.6z M386.3,225.8l-1.9-1.3l-1.4,0.9 l0.6,1.5l2.4,0L386.3,225.8z M386.9,232.2l-0.6-0.9l-2.3,0.5l-0.3,1.7l1.6,0.6L386.9,232.2z M389,234.1l-0.9-0.6l-1.9,1.4l0.4,1.6 l1.7-0.1L389,234.1z M391.8,237.5l-0.3-2.4l-1.1-0.2l-1.1,2.1l1,1.3L391.8,237.5z M394.3,234.8l-1.1,0.3l-0.2,2.3l1.5,0.8l1-1.3 L394.3,234.8z M395.9,234.2l0.8,2.2l1.7,0.1l0.4-1.6l-2-1.4L395.9,234.2z M397.9,232.3l1.6,1.7l1.6-0.6l-0.3-1.6l-2.4-0.5 L397.9,232.3z M398.6,225.9l0.4,1l2.3,0l0.6-1.6l-1.4-0.9L398.6,225.9z M394.7,222.2l1,0.4l1.5-1.8l-0.8-1.5l-1.6,0.4L394.7,222.2z M392.5,129.5c-5.2,0-9.5,4.3-9.5,9.5s4.3,9.5,9.5,9.5c5.2,0,9.5-4.3,9.5-9.5S397.7,129.5,392.5,129.5z M387.9,223.5l-1.2-2 l-1.7,0.2l-0.1,1.7l2.2,1L387.9,223.5z M385.9,229.6l-0.2-1.1l-2.3-0.4l-0.9,1.4l1.2,1.2L385.9,229.6z M399,229.8l2.2,0.9l1.2-1.2 l-0.9-1.4l-2.4,0.5L399,229.8z M397,223.6l0.8,0.8l2.1-1l-0.1-1.7l-1.6-0.2L397,223.6z M392.4,222.7c-3.2,0-5.8,2.6-5.8,5.7 c0,3.1,2.6,5.7,5.8,5.7s5.8-2.6,5.8-5.7C398.3,225.3,395.7,222.7,392.4,222.7z M392.6,218.6L392.6,218.6l-0.3,0l0,0l-1.1,0.9 l0.8,2.3l1.1,0l0.7-2.2L392.6,218.6z" style="fill: rgb(25, 25, 25);"/></g></svg>